<svg version="1.0" xmlns="http://www.w3.org/2000/svg" 
    width="347" height="76" viewBox="0 0 347 76"
    preserveAspectRatio="xMidYMid meet">

    <style>
        path {
            fill: transparent;
            stroke: #000000;
            stroke-width: 4;
            stroke-dasharray: 3000;
            stroke-dashoffset: 3000;
            animation: draw 4s ease forwards;
        }

        @keyframes draw {
            to {
                stroke-dashoffset: 0;
            }
        }
    </style>

    <g transform="translate(0,76) scale(0.1,-0.1)">
        <path d="M0 435 l0 -325 55 0 55 0 0 165 0 165 160 0 160 0 0 55 0 55 55 0 55 0 0 50 0 50 -55 0 -55 0 0 55 0 55 -215 0 -215 0 0 -325z m430 165 l0 -50 -160 0 -160 0 0 50 0 50 160 0 160 0 0 -50z"/>
        <path d="M600 435 l0 -325 50 0 49 0 3 108 3 107 53 3 52 3 0 55 0 54 55 0 55 0 0 -165 0 -165 55 0 55 0 0 165 0 165 -55 0 -55 0 0 55 0 55 -55 0 -55 0 0 -55 0 -55 -55 0 -55 0 0 160 0 160 -50 0 -50 0 0 -325z"/>
        <path d="M3030 435 l0 -325 55 0 55 0 0 110 0 110 55 0 55 0 0 55 0 55 55 0 55 0 0 -165 0 -165 55 0 55 0 -2 163 -3 162 -52 3 -53 3 0 55 0 54 -55 0 -55 0 0 -55 0 -55 -55 0 -55 0 0 160 0 160 -55 0 -55 0 0 -325z"/>
        <path d="M1190 545 l0 -55 -55 0 -55 0 0 -135 0 -135 55 0 55 0 0 -55 0 -55 110 0 110 0 0 55 0 55 55 0 55 0 0 135 0 135 -55 0 -55 0 0 55 0 55 -110 0 -110 0 0 -55z m220 -190 l0 -135 -110 0 -110 0 0 135 0 135 110 0 110 0 0 -135z"/>
        <path d="M1680 545 l0 -55 -55 0 -55 0 0 -135 0 -135 55 0 55 0 0 -55 0 -55 160 0 160 0 0 80 0 80 -50 0 c-47 0 -50 -2 -50 -25 l0 -25 -110 0 -110 0 0 55 0 55 110 0 110 0 0 25 c0 23 3 25 50 25 l50 0 0 110 0 110 -160 0 -160 0 0 -55z m220 -80 l0 -25 -110 0 -110 0 0 25 0 25 110 0 110 0 0 -25z"/>
        <path d="M2060 465 l0 -135 55 0 55 0 0 -55 0 -55 105 0 105 0 0 -55 0 -55 -160 0 -160 0 0 -55 0 -55 160 0 160 0 0 55 0 55 55 0 55 0 0 245 0 245 -55 0 -55 0 0 -135 0 -135 -105 0 -105 0 0 135 0 135 -55 0 -55 0 0 -135z"/>
        <path d="M2550 410 l0 -190 50 0 50 0 0 -55 0 -55 165 0 165 0 0 245 0 245 -55 0 -55 0 0 -190 0 -190 -110 0 -110 0 0 190 0 190 -50 0 -50 0 0 -190z"/>
        <path d="M600 435 l0 -325 50 0 49 0 3 108 3 107 53 3 52 3 0 55 0 54 55 0 55 0 0 -165 0 -165 55 0 55 0 0 165 0 165 -55 0 -55 0 0 55 0 55 -55 0 -55 0 0 -55 0 -55 -55 0 -55 0 0 160 0 160 -50 0 -50 0 0 -325z"/>
    </g>
</svg>
