<svg xmlns="http://www.w3.org/2000/svg"
     viewBox="0 0 547 87"
     width="1000"
     height="160"
     preserveAspectRatio="xMidYMid meet">

  <style>
    path {
      fill: transparent;
      stroke: black;
      stroke-width: 2;
      stroke-dasharray: 1;
      stroke-dashoffset: 1;
      animation:
        draw 3s ease-out forwards,
        fillBackground 1s 3.2s ease-out forwards;
    }

    @keyframes draw {
      to {
        stroke-dashoffset: 0;
      }
    }

    @keyframes fillBackground {
      to {
        fill: black;
      }
    }
  </style>

  <g transform="translate(0,87) scale(0.1,-0.1)">
    <path pathLength="1" d="M0 435 l0 -435 135 0 135 0 0 160 0 160 190 0 190 0 0 275 0 275
      -325 0 -325 0 0 -435z m380 160 l0 -55 -55 0 -55 0 0 55 0 55 55 0 55 0 0 -55z"/>
    <path pathLength="1" d="M730 435 l0 -435 135 0 135 0 0 160 0 160 80 0 80 0 0 -160 0 -160
      140 0 140 0 0 435 0 435 -140 0 -140 0 0 -165 0 -165 -80 0 -80 0 0 165 0 165
      -135 0 -135 0 0 -435z"/>
    <path pathLength="1" d="M1600 830 l0 -40 -40 0 -40 0 0 -355 0 -355 40 0 40 0 0 -40 0 -40
      295 0 295 0 0 40 0 40 40 0 40 0 0 355 0 355 -40 0 -40 0 0 40 0 40 -295 0
      -295 0 0 -40z m400 -395 l0 -215 -105 0 -105 0 0 215 0 215 105 0 105 0 0
      -215z"/>
    <path pathLength="1" d="M2360 435 l0 -435 325 0 326 0 -3 108 -3 107 -187 3 -188 2 0 50 0
      50 188 2 187 3 3 108 3 107 -191 0 -190 0 0 55 0 55 188 2 187 3 3 108 3 107
      -326 0 -325 0 0 -435z"/>
    <path pathLength="1" d="M3090 681 l0 -190 53 -3 52 -3 3 -37 c3 -37 4 -38 43 -38 39 0 39 0
      39 -39 0 -39 1 -40 38 -43 l37 -3 3 -162 2 -163 135 0 135 0 0 165 0 165 40 0
      40 0 0 40 0 40 40 0 40 0 0 40 0 40 55 0 55 0 0 190 0 190 -135 0 -135 0 0
      -110 0 -110 -40 0 -40 0 0 -40 0 -40 -55 0 -55 0 0 40 0 40 -40 0 -40 0 0 110
      0 110 -135 0 -135 0 0 -189z"/>
    <path pathLength="1" d="M3980 435 l0 -435 350 0 350 0 0 435 0 435 -135 0 -135 0 0 -325 0
      -325 -80 0 -80 0 0 325 0 325 -135 0 -135 0 0 -435z"/>
    <path pathLength="1" d="M4770 435 l0 -435 135 0 135 0 0 160 0 160 80 0 80 0 0 -160 0 -160
      135 0 135 0 0 435 0 435 -135 0 -135 0 0 -165 0 -165 -80 0 -80 0 0 165 0 165
      -135 0 -135 0 0 -435z"/>
  </g>
</svg>
